<svg width="256" height="256" viewBox="0 0 256 256" fill="none" xmlns="http://www.w3.org/2000/svg">
<rect width="256" height="256" fill="white"/>
<path fill-rule="evenodd" clip-rule="evenodd" d="M0 0V256H256V0H0Z" fill="#8000FF"/>
<path d="M112.72 214.664C112.203 214.573 111.672 214.585 111.16 214.699C110.647 214.813 110.161 215.027 109.731 215.329C109.301 215.63 108.935 216.014 108.653 216.457C108.371 216.9 108.179 217.395 108.088 217.912C107.997 218.429 108.009 218.96 108.123 219.472C108.237 219.985 108.451 220.471 108.753 220.901C109.054 221.331 109.438 221.697 109.881 221.979C110.324 222.261 110.819 222.453 111.336 222.544C112.381 222.728 113.456 222.488 114.325 221.879C115.193 221.27 115.784 220.341 115.968 219.296C116.152 218.251 115.912 217.176 115.303 216.307C114.694 215.439 113.765 214.848 112.72 214.664V214.664ZM128 216C126.939 216 125.922 216.421 125.172 217.172C124.421 217.922 124 218.939 124 220C124 221.061 124.421 222.078 125.172 222.828C125.922 223.579 126.939 224 128 224C129.061 224 130.078 223.579 130.828 222.828C131.579 222.078 132 221.061 132 220C132 218.939 131.579 217.922 130.828 217.172C130.078 216.421 129.061 216 128 216ZM158.096 210.696C157.575 210.853 157.091 211.115 156.675 211.466C156.259 211.816 155.918 212.248 155.675 212.735C155.431 213.222 155.289 213.753 155.258 214.297C155.227 214.84 155.307 215.384 155.494 215.896C155.68 216.407 155.969 216.875 156.343 217.271C156.716 217.667 157.167 217.982 157.666 218.198C158.166 218.414 158.705 218.525 159.249 218.525C159.793 218.526 160.332 218.415 160.832 218.2C161.771 217.796 162.519 217.049 162.924 216.111C163.329 215.173 163.36 214.115 163.01 213.155C162.66 212.195 161.956 211.406 161.042 210.948C160.128 210.491 159.074 210.401 158.096 210.696V210.696ZM65.8 195.904C65.4305 196.301 65.1456 196.769 64.9627 197.28C64.7799 197.791 64.7028 198.333 64.7362 198.875C64.7696 199.416 64.9128 199.945 65.1571 200.43C65.4014 200.914 65.7417 201.344 66.1572 201.693C66.5728 202.041 67.055 202.302 67.5744 202.458C68.0938 202.615 68.6396 202.664 69.1787 202.603C69.7177 202.542 70.2387 202.372 70.71 202.103C71.1813 201.835 71.5929 201.473 71.92 201.04C72.5382 200.222 72.8186 199.197 72.7032 198.178C72.5878 197.16 72.0855 196.224 71.3 195.565C70.5144 194.905 69.5057 194.573 68.4822 194.636C67.4587 194.699 66.4985 195.153 65.8 195.904ZM54.464 66.296C54.1034 66.6946 53.8268 67.1619 53.6508 67.6698C53.4748 68.1777 53.4029 68.7159 53.4396 69.2522C53.4762 69.7885 53.6206 70.3119 53.8641 70.7911C54.1075 71.2704 54.4451 71.6957 54.8566 72.0415C55.2681 72.3874 55.7451 72.6468 56.2591 72.8042C56.773 72.9616 57.3135 73.0138 57.8481 72.9576C58.3827 72.9015 58.9005 72.7381 59.3706 72.4774C59.8406 72.2166 60.2533 71.8638 60.584 71.44C61.2211 70.6235 61.5166 69.5917 61.4084 68.5617C61.3002 67.5317 60.7968 66.5838 60.004 65.9175C59.2112 65.2511 58.1908 64.9182 57.1576 64.9888C56.1244 65.0594 55.1588 65.528 54.464 66.296V66.296ZM172 204.208C171.541 204.469 171.139 204.818 170.816 205.234C170.493 205.651 170.255 206.128 170.117 206.637C169.979 207.146 169.942 207.678 170.01 208.201C170.078 208.724 170.249 209.228 170.513 209.685C170.777 210.142 171.128 210.542 171.547 210.863C171.966 211.183 172.445 211.418 172.955 211.552C173.465 211.687 173.996 211.72 174.519 211.648C175.042 211.577 175.545 211.403 176 211.136C176.911 210.602 177.574 209.729 177.844 208.708C178.114 207.686 177.969 206.6 177.441 205.685C176.913 204.77 176.044 204.102 175.025 203.825C174.006 203.548 172.918 203.686 172 204.208ZM97.904 210.696C97.4102 210.516 96.8858 210.435 96.3607 210.457C95.8355 210.48 95.32 210.605 94.8434 210.827C93.881 211.275 93.1359 212.087 92.772 213.084C92.4081 214.081 92.4553 215.182 92.9031 216.145C93.351 217.107 94.1628 217.852 95.16 218.216C96.1572 218.58 97.2581 218.533 98.2206 218.085C99.183 217.637 99.9281 216.825 100.292 215.828C100.656 214.831 100.609 213.73 100.161 212.767C99.713 211.805 98.9012 211.06 97.904 210.696V210.696ZM84 204.208C83.0802 203.678 81.9874 203.534 80.962 203.81C79.9365 204.085 79.0624 204.756 78.532 205.676C78.0016 206.596 77.8582 207.689 78.1335 208.714C78.4088 209.739 79.0802 210.614 80 211.144C80.4554 211.407 80.9581 211.577 81.4794 211.645C82.0007 211.714 82.5303 211.679 83.038 211.542C83.5458 211.406 84.0217 211.171 84.4386 210.851C84.8556 210.531 85.2054 210.131 85.468 209.676C85.7306 209.221 85.901 208.718 85.9694 208.197C86.0378 207.675 86.0028 207.146 85.8665 206.638C85.7301 206.13 85.4952 205.654 85.1749 205.237C84.8547 204.82 84.4554 204.471 84 204.208V204.208ZM195.904 65.8C195.471 66.1271 195.109 66.5387 194.841 67.01C194.572 67.4813 194.402 68.0023 194.341 68.5413C194.28 69.0804 194.329 69.6262 194.486 70.1456C194.642 70.665 194.903 71.1472 195.251 71.5628C195.6 71.9783 196.03 72.3186 196.514 72.5629C196.999 72.8072 197.528 72.9504 198.069 72.9838C198.611 73.0172 199.153 72.9401 199.664 72.7573C200.175 72.5744 200.643 72.2895 201.04 71.92C201.791 71.2215 202.245 70.2613 202.308 69.2378C202.371 68.2143 202.039 67.2055 201.379 66.42C200.72 65.6345 199.784 65.1322 198.766 65.0168C197.747 64.9014 196.722 65.1818 195.904 65.8V65.8ZM215.824 155.704C215.33 155.525 214.805 155.445 214.28 155.469C213.755 155.492 213.239 155.619 212.763 155.842C212.287 156.065 211.859 156.379 211.505 156.767C211.15 157.156 210.875 157.61 210.696 158.104C210.517 158.598 210.437 159.123 210.461 159.648C210.484 160.173 210.611 160.689 210.834 161.165C211.057 161.641 211.371 162.069 211.759 162.424C212.148 162.778 212.602 163.053 213.096 163.232C214.094 163.594 215.195 163.544 216.157 163.094C217.119 162.644 217.862 161.83 218.224 160.832C218.586 159.834 218.536 158.733 218.086 157.771C217.636 156.809 216.822 156.066 215.824 155.704V155.704ZM220 124C218.939 124 217.922 124.421 217.172 125.172C216.421 125.922 216 126.939 216 128C216 129.061 216.421 130.078 217.172 130.828C217.922 131.579 218.939 132 220 132C221.061 132 222.078 131.579 222.828 130.828C223.579 130.078 224 129.061 224 128C224 126.939 223.579 125.922 222.828 125.172C222.078 124.421 221.061 124 220 124ZM219.296 140.032C218.249 139.85 217.172 140.09 216.303 140.702C215.433 141.313 214.842 142.245 214.66 143.292C214.478 144.339 214.718 145.416 215.33 146.285C215.941 147.155 216.873 147.746 217.92 147.928C218.967 148.11 220.044 147.87 220.913 147.258C221.783 146.647 222.374 145.715 222.556 144.668C222.738 143.621 222.498 142.544 221.886 141.675C221.275 140.805 220.343 140.214 219.296 140.032V140.032ZM209.68 170.536C209.225 170.269 208.722 170.095 208.199 170.024C207.676 169.952 207.145 169.985 206.635 170.12C206.125 170.254 205.646 170.489 205.227 170.809C204.808 171.13 204.457 171.53 204.193 171.987C203.929 172.444 203.758 172.948 203.69 173.471C203.622 173.994 203.659 174.526 203.797 175.035C203.935 175.544 204.173 176.021 204.496 176.438C204.819 176.854 205.221 177.203 205.68 177.464C206.598 177.986 207.686 178.124 208.705 177.847C209.724 177.57 210.593 176.902 211.121 175.987C211.649 175.072 211.794 173.986 211.524 172.964C211.254 171.943 210.591 171.07 209.68 170.536ZM195.416 184.568C195.044 184.964 194.758 185.432 194.573 185.943C194.388 186.454 194.309 186.997 194.341 187.54C194.373 188.082 194.516 188.612 194.759 189.098C195.003 189.583 195.343 190.014 195.759 190.364C196.174 190.714 196.657 190.975 197.177 191.132C197.697 191.29 198.244 191.339 198.783 191.278C199.323 191.217 199.845 191.047 200.317 190.778C200.789 190.508 201.201 190.146 201.528 189.712C202.144 188.895 202.424 187.872 202.309 186.854C202.194 185.837 201.693 184.902 200.91 184.243C200.127 183.584 199.12 183.25 198.098 183.311C197.076 183.371 196.116 183.821 195.416 184.568ZM144 128C144 119.176 136.824 112 128 112C119.176 112 112 119.176 112 128C112 136.824 119.176 144 128 144C136.824 144 144 136.824 144 128ZM160 128C160 145.648 145.648 160 128 160C110.36 160 96 145.648 96 128C96 110.352 110.36 96 128 96C145.648 96 160 110.352 160 128ZM54.952 184.072C54.5282 184.403 54.1754 184.815 53.9146 185.285C53.6539 185.756 53.4905 186.273 53.4344 186.808C53.3782 187.343 53.4304 187.883 53.5878 188.397C53.7452 188.911 54.0046 189.388 54.3505 189.799C54.6963 190.211 55.1216 190.548 55.6009 190.792C56.0801 191.035 56.6035 191.18 57.1398 191.216C57.6761 191.253 58.2143 191.181 58.7222 191.005C59.2301 190.829 59.6974 190.553 60.096 190.192C60.864 189.497 61.3326 188.532 61.4032 187.498C61.4738 186.465 61.1409 185.445 60.4745 184.652C59.8082 183.859 58.8603 183.356 57.8303 183.248C56.8003 183.139 55.7685 183.435 54.952 184.072V184.072ZM184 128C184 97.128 158.88 72 128 72C97.12 72 72 97.128 72 128C72 158.872 97.12 184 128 184C158.88 184 184 158.872 184 128ZM192 128C192 163.288 163.288 192 128 192C92.712 192 64 163.288 64 128C64 92.712 92.712 64 128 64C163.288 64 192 92.712 192 128ZM184.568 195.416C183.755 196.099 183.247 197.077 183.156 198.135C183.064 199.193 183.397 200.243 184.08 201.056C184.763 201.869 185.741 202.377 186.799 202.468C187.857 202.56 188.907 202.227 189.72 201.544C190.122 201.206 190.454 200.791 190.696 200.325C190.939 199.858 191.087 199.349 191.132 198.825C191.177 198.301 191.119 197.774 190.961 197.273C190.802 196.771 190.546 196.306 190.208 195.904C189.87 195.502 189.455 195.17 188.989 194.928C188.522 194.685 188.013 194.537 187.489 194.492C186.965 194.447 186.438 194.505 185.937 194.663C185.435 194.822 184.97 195.078 184.568 195.416ZM143.28 214.664C142.737 214.725 142.213 214.897 141.74 215.169C141.266 215.441 140.853 215.806 140.526 216.244C140.199 216.681 139.965 217.18 139.839 217.712C139.712 218.243 139.696 218.794 139.79 219.332C139.885 219.87 140.089 220.382 140.389 220.838C140.689 221.294 141.08 221.684 141.536 221.984C141.993 222.283 142.506 222.486 143.044 222.579C143.582 222.673 144.133 222.656 144.664 222.528C145.654 222.29 146.516 221.684 147.075 220.832C147.633 219.981 147.846 218.948 147.669 217.945C147.493 216.942 146.94 216.045 146.125 215.435C145.309 214.825 144.292 214.55 143.28 214.664ZM112.72 41.336C113.237 41.2451 113.732 41.0532 114.175 40.7713C114.618 40.4893 115.002 40.1228 115.303 39.6927C115.605 39.2626 115.819 38.7772 115.933 38.2644C116.047 37.7516 116.059 37.2214 115.968 36.704C115.877 36.1866 115.685 35.6921 115.403 35.2489C115.121 34.8057 114.755 34.4223 114.325 34.1207C113.895 33.8191 113.409 33.6051 112.896 33.4911C112.384 33.3771 111.853 33.3651 111.336 33.456C110.291 33.6395 109.362 34.2306 108.753 35.0993C108.144 35.968 107.904 37.043 108.088 38.088C108.272 39.133 108.863 40.0622 109.731 40.6713C110.6 41.2804 111.675 41.5195 112.72 41.336ZM158.096 45.304C158.591 45.4963 159.119 45.5879 159.65 45.5736C160.18 45.5592 160.703 45.4392 161.186 45.2205C161.67 45.0018 162.105 44.6888 162.467 44.2998C162.828 43.9109 163.108 43.4538 163.291 42.9553C163.473 42.4568 163.554 41.9269 163.529 41.3966C163.505 40.8663 163.374 40.3463 163.146 39.867C162.918 39.3877 162.596 38.9588 162.201 38.6052C161.805 38.2517 161.342 37.9806 160.84 37.808C159.852 37.4681 158.769 37.5294 157.826 37.9786C156.882 38.4279 156.152 39.2293 155.793 40.2108C155.434 41.1922 155.474 42.2754 155.904 43.2277C156.335 44.18 157.122 44.9255 158.096 45.304V45.304ZM128 40C129.061 40 130.078 39.5786 130.828 38.8284C131.579 38.0783 132 37.0609 132 36C132 34.9391 131.579 33.9217 130.828 33.1716C130.078 32.4214 129.061 32 128 32C126.939 32 125.922 32.4214 125.172 33.1716C124.421 33.9217 124 34.9391 124 36C124 37.0609 124.421 38.0783 125.172 38.8284C125.922 39.5786 126.939 40 128 40ZM143.28 41.336C143.806 41.4499 144.35 41.4566 144.878 41.3555C145.407 41.2544 145.91 41.0477 146.356 40.7477C146.803 40.4478 147.185 40.0607 147.479 39.6097C147.772 39.1588 147.972 38.6532 148.066 38.1232C148.16 37.5932 148.145 37.0498 148.024 36.5255C147.903 36.0011 147.677 35.5066 147.36 35.0716C147.043 34.6366 146.642 34.27 146.18 33.9937C145.718 33.7175 145.205 33.5373 144.672 33.464C143.647 33.3231 142.608 33.5845 141.772 34.1935C140.936 34.8025 140.368 35.7116 140.188 36.7302C140.008 37.7487 140.229 38.7974 140.806 39.6562C141.382 40.5149 142.269 41.117 143.28 41.336V41.336ZM172 51.792C172.92 52.3224 174.013 52.4658 175.038 52.1905C176.063 51.9152 176.938 51.2438 177.468 50.324C177.998 49.4042 178.142 48.3114 177.866 47.286C177.591 46.2605 176.92 45.3864 176 44.856C175.545 44.5934 175.042 44.423 174.521 44.3546C173.999 44.2863 173.47 44.3212 172.962 44.4575C172.454 44.5939 171.978 44.8288 171.561 45.1491C171.144 45.4693 170.795 45.8686 170.532 46.324C170.269 46.7794 170.099 47.2821 170.031 47.8034C169.962 48.3247 169.997 48.8543 170.134 49.362C170.409 50.3875 171.08 51.2616 172 51.792ZM50.328 78.536C49.4082 78.0056 48.3154 77.8622 47.29 78.1375C46.2645 78.4128 45.3904 79.0842 44.86 80.004C44.3296 80.9238 44.1862 82.0166 44.4615 83.042C44.7368 84.0675 45.4082 84.9416 46.328 85.472C47.2478 86.0024 48.3406 86.1458 49.366 85.8705C49.8738 85.7341 50.3497 85.4991 50.7666 85.1789C51.1836 84.8587 51.5334 84.4594 51.796 84.004C52.0586 83.5486 52.229 83.0459 52.2974 82.5246C52.3658 82.0033 52.3308 81.4737 52.1945 80.966C52.0581 80.4582 51.8232 79.9823 51.5029 79.5654C51.1827 79.1484 50.7834 78.7986 50.328 78.536V78.536ZM209.68 85.464C210.158 85.2139 210.581 84.8698 210.922 84.4522C211.264 84.0346 211.517 83.5523 211.668 83.0341C211.818 82.516 211.862 81.9729 211.797 81.4373C211.732 80.9018 211.559 80.3849 211.289 79.9179C211.019 79.4508 210.657 79.0432 210.226 78.7195C209.794 78.3959 209.302 78.1629 208.778 78.0345C208.254 77.9062 207.709 77.8851 207.177 77.9727C206.644 78.0603 206.135 78.2546 205.68 78.544C204.809 79.0975 204.186 79.966 203.941 80.968C203.695 81.9701 203.847 83.0282 204.363 83.9214C204.879 84.8146 205.721 85.4738 206.711 85.7613C207.702 86.0487 208.766 85.9422 209.68 85.464V85.464ZM190.2 60.096C190.538 59.6931 190.794 59.2275 190.952 58.7258C191.111 58.2242 191.169 57.6962 191.123 57.1721C191.077 56.648 190.929 56.138 190.686 55.6713C190.443 55.2046 190.111 54.7903 189.708 54.452C189.305 54.1137 188.84 53.8581 188.338 53.6997C187.836 53.5414 187.308 53.4834 186.784 53.5291C186.26 53.5748 185.75 53.7232 185.283 53.966C184.817 54.2088 184.402 54.5411 184.064 54.944C183.381 55.7577 183.049 56.8094 183.141 57.8679C183.233 58.9264 183.742 59.9048 184.556 60.588C185.37 61.2712 186.421 61.6032 187.48 61.5109C188.538 61.4186 189.517 60.9097 190.2 60.096V60.096ZM210.696 97.904C211.06 98.9012 211.805 99.713 212.767 100.161C213.73 100.609 214.831 100.656 215.828 100.292C216.825 99.9281 217.637 99.183 218.085 98.2206C218.533 97.2581 218.58 96.1572 218.216 95.16C217.852 94.1628 217.107 93.351 216.145 92.9031C215.182 92.4553 214.081 92.4081 213.084 92.772C212.087 93.1359 211.275 93.881 210.827 94.8434C210.379 95.8059 210.332 96.9068 210.696 97.904ZM214.664 112.72C214.725 113.263 214.897 113.787 215.169 114.26C215.441 114.734 215.806 115.147 216.244 115.474C216.681 115.801 217.18 116.035 217.712 116.161C218.243 116.288 218.794 116.304 219.332 116.21C219.87 116.115 220.382 115.911 220.838 115.611C221.294 115.311 221.684 114.92 221.984 114.464C222.283 114.007 222.486 113.494 222.579 112.956C222.673 112.418 222.656 111.867 222.528 111.336C222.29 110.346 221.684 109.484 220.832 108.925C219.981 108.367 218.948 108.154 217.945 108.331C216.942 108.507 216.045 109.06 215.435 109.875C214.825 110.691 214.55 111.708 214.664 112.72V112.72ZM41.336 143.28C41.2441 142.762 41.051 142.267 40.7679 141.824C40.4848 141.381 40.1171 140.997 39.6859 140.696C39.2546 140.395 38.7683 140.182 38.2546 140.068C37.7409 139.955 37.2099 139.944 36.692 140.036C36.1741 140.128 35.6793 140.321 35.236 140.604C34.7927 140.887 34.4094 141.255 34.1082 141.686C33.807 142.117 33.5936 142.604 33.4803 143.117C33.3671 143.631 33.3561 144.162 33.448 144.68C33.6337 145.726 34.2272 146.655 35.0981 147.264C35.9691 147.872 37.046 148.11 38.092 147.924C39.138 147.738 40.0674 147.145 40.6758 146.274C41.2842 145.403 41.5217 144.326 41.336 143.28V143.28ZM40 128C40 126.939 39.5786 125.922 38.8284 125.172C38.0783 124.421 37.0609 124 36 124C34.9391 124 33.9217 124.421 33.1716 125.172C32.4214 125.922 32 126.939 32 128C32 129.061 32.4214 130.078 33.1716 130.828C33.9217 131.579 34.9391 132 36 132C37.0609 132 38.0783 131.579 38.8284 130.828C39.5786 130.078 40 129.061 40 128ZM97.904 45.304C98.9012 44.9401 99.713 44.195 100.161 43.2326C100.609 42.2701 100.656 41.1692 100.292 40.172C99.9281 39.1748 99.183 38.363 98.2206 37.9151C97.2581 37.4673 96.1572 37.4201 95.16 37.784C94.6662 37.9642 94.2128 38.2398 93.8255 38.5953C93.4383 38.9507 93.1249 39.3789 92.9031 39.8554C92.6814 40.332 92.5557 40.8475 92.5332 41.3727C92.5107 41.8978 92.5918 42.4222 92.772 42.916C92.9522 43.4098 93.2278 43.8632 93.5833 44.2505C93.9387 44.6377 94.3669 44.9511 94.8434 45.1729C95.32 45.3946 95.8355 45.5203 96.3607 45.5428C96.8858 45.5653 97.4102 45.4842 97.904 45.304ZM46.328 170.536C45.8694 170.797 45.4669 171.146 45.1437 171.562C44.8205 171.979 44.583 172.456 44.4448 172.965C44.3065 173.474 44.2704 174.006 44.3384 174.529C44.4064 175.052 44.5772 175.556 44.8409 176.013C45.1047 176.47 45.4562 176.87 45.8753 177.191C46.2943 177.511 46.7726 177.746 47.2826 177.88C47.7926 178.015 48.3242 178.048 48.8469 177.976C49.3696 177.905 49.8729 177.731 50.328 177.464C51.2392 176.93 51.9022 176.057 52.1721 175.036C52.4421 174.014 52.2972 172.928 51.7691 172.013C51.2409 171.098 50.3724 170.43 49.3531 170.153C48.3337 169.876 47.2462 170.014 46.328 170.536ZM45.312 158.096C45.1415 157.59 44.8715 157.124 44.5179 156.724C44.1644 156.324 43.7343 155.999 43.2532 155.768C42.7721 155.537 42.2496 155.404 41.7165 155.378C41.1834 155.352 40.6505 155.433 40.1491 155.617C39.6478 155.8 39.1882 156.081 38.7973 156.445C38.4065 156.808 38.0924 157.246 37.8735 157.733C37.6546 158.22 37.5353 158.746 37.5227 159.279C37.51 159.813 37.6043 160.343 37.8 160.84C38.1825 161.811 38.9293 162.594 39.8809 163.022C40.8326 163.45 41.9138 163.489 42.894 163.131C43.8741 162.773 44.6755 162.046 45.1273 161.105C45.579 160.165 45.6453 159.085 45.312 158.096ZM36.704 115.96C37.2335 116.085 37.7828 116.101 38.3185 116.006C38.8543 115.911 39.365 115.708 39.8196 115.41C40.2742 115.111 40.6631 114.723 40.9625 114.268C41.2619 113.814 41.4655 113.304 41.5608 112.768C41.6562 112.232 41.6413 111.683 41.5171 111.153C41.3928 110.624 41.1619 110.125 40.8383 109.688C40.5147 109.25 40.1053 108.884 39.6352 108.61C39.1651 108.336 38.644 108.161 38.104 108.096C37.089 107.973 36.0655 108.243 35.2436 108.851C34.4217 109.46 33.8639 110.359 33.6847 111.366C33.5055 112.372 33.7185 113.409 34.28 114.264C34.8416 115.118 35.7089 115.725 36.704 115.96ZM40.184 100.296C40.6816 100.492 41.2134 100.586 41.7481 100.573C42.2827 100.56 42.8093 100.44 43.2967 100.22C43.7841 99.9999 44.2225 99.6842 44.5858 99.2918C44.9491 98.8993 45.23 98.438 45.4119 97.935C45.5938 97.4321 45.673 96.8978 45.6448 96.3637C45.6167 95.8297 45.4817 95.3067 45.2479 94.8257C45.014 94.3447 44.6861 93.9155 44.2836 93.5634C43.881 93.2114 43.4119 92.9436 42.904 92.776C41.9152 92.4497 40.8381 92.5218 39.9016 92.977C38.9651 93.4323 38.2431 94.2347 37.8889 95.2139C37.5347 96.1931 37.5763 97.2718 38.0049 98.2208C38.4335 99.1698 39.2152 99.9143 40.184 100.296V100.296ZM84 51.792C84.4586 51.5313 84.8611 51.1824 85.1843 50.7655C85.5075 50.3486 85.745 49.8719 85.8832 49.3628C86.0215 48.8537 86.0576 48.3223 85.9896 47.7992C85.9216 47.276 85.7508 46.7715 85.4871 46.3147C85.2233 45.8578 84.8718 45.4577 84.4527 45.1373C84.0337 44.8168 83.5554 44.5824 83.0454 44.4476C82.5354 44.3128 82.0038 44.2801 81.4811 44.3516C80.9584 44.4231 80.4551 44.5972 80 44.864C79.0888 45.3982 78.4258 46.2711 78.1558 47.2923C77.8859 48.3135 78.0308 49.4 78.5589 50.3148C79.087 51.2295 79.9556 51.8982 80.9749 52.175C81.9943 52.4517 83.0818 52.3141 84 51.792ZM65.8 60.096C65.4622 59.6926 65.2073 59.2266 65.0496 58.7246C64.8919 58.2226 64.8347 57.6945 64.8811 57.1704C64.9275 56.6464 65.0767 56.1365 65.3202 55.6701C65.5636 55.2037 65.8966 54.7898 66.3 54.452C66.7034 54.1142 67.1694 53.8592 67.6714 53.7016C68.1734 53.5439 68.7015 53.4867 69.2256 53.5331C69.7496 53.5795 70.2595 53.7287 70.7259 53.9722C71.1923 54.2156 71.6062 54.5486 71.944 54.952C72.6261 55.7667 72.9567 56.8191 72.8629 57.8776C72.7691 58.936 72.2587 59.9139 71.444 60.596C70.6293 61.2781 69.5769 61.6087 68.5184 61.5149C67.46 61.4211 66.4821 60.9107 65.8 60.096" fill="white"/>
</svg>
